<svg width="1356" height="387" viewBox="0 0 1356 387" fill="none" xmlns="http://www.w3.org/2000/svg">
<path d="M517.498 86.0775C517.498 93.3225 515.945 99.2175 512.84 103.762C509.735 108.262 505.438 111.57 499.948 113.685C494.503 115.755 488.225 116.79 481.115 116.79H469.843V150H454.183V56.85H480.035C491.735 56.85 500.893 59.2575 507.508 64.0725C514.168 68.8425 517.498 76.1775 517.498 86.0775ZM501.028 86.2125C501.028 79.8225 499.205 75.3 495.56 72.645C491.96 69.945 487.123 68.595 481.048 68.595H469.843V104.842H481.25C487.1 104.842 491.848 103.492 495.493 100.792C499.183 98.0925 501.028 93.2325 501.028 86.2125ZM596.015 83.7825C596.015 90.6675 593.967 96.225 589.872 100.455C585.777 104.685 580.76 107.677 574.82 109.432L601.212 150H582.987L559.565 111.66H549.372V150H533.712V56.85H559.7C571.625 56.85 580.647 59.1 586.767 63.6C592.932 68.055 596.015 74.7825 596.015 83.7825ZM579.612 83.7825C579.612 78.3825 578.037 74.49 574.887 72.105C571.737 69.675 566.967 68.46 560.577 68.46H549.372V100.185H560.915C566.855 100.185 571.445 98.925 574.685 96.405C577.97 93.84 579.612 89.6325 579.612 83.7825ZM679.122 103.425C679.122 113.01 677.795 121.447 675.14 128.737C672.485 135.982 668.525 141.652 663.26 145.747C657.995 149.798 651.47 151.823 643.685 151.823C635.9 151.823 629.375 149.842 624.11 145.882C618.845 141.922 614.885 136.32 612.23 129.075C609.575 121.83 608.247 113.325 608.247 103.56C608.247 93.975 609.575 85.5375 612.23 78.2475C614.885 70.9575 618.845 65.265 624.11 61.17C629.375 57.03 635.9 54.96 643.685 54.96C651.47 54.96 657.995 56.9625 663.26 60.9675C668.525 64.9725 672.485 70.62 675.14 77.91C677.795 85.155 679.122 93.66 679.122 103.425ZM662.922 103.425C662.922 91.365 661.437 82.32 658.467 76.29C655.497 70.215 650.57 67.1775 643.685 67.1775C636.8 67.1775 631.872 70.2375 628.902 76.3575C625.932 82.4325 624.447 91.5 624.447 103.56C624.447 115.575 625.977 124.597 629.037 130.627C632.097 136.612 636.98 139.605 643.685 139.605C650.57 139.605 655.497 136.59 658.467 130.56C661.437 124.485 662.922 115.44 662.922 103.425ZM727.062 151.823C715.182 151.823 705.889 147.75 699.184 139.605C692.479 131.46 689.127 119.355 689.127 103.29C689.127 92.67 690.994 83.7825 694.729 76.6275C698.509 69.4275 703.482 64.0275 709.647 60.4275C715.812 56.7825 722.517 54.96 729.762 54.96C736.107 54.96 741.394 55.905 745.624 57.795C749.899 59.685 753.859 62.3175 757.504 65.6925L748.729 74.805C745.894 72.24 742.992 70.3275 740.022 69.0675C737.097 67.8075 733.812 67.1775 730.167 67.1775C725.802 67.1775 721.752 68.3475 718.017 70.6875C714.282 72.9825 711.267 76.785 708.972 82.095C706.677 87.36 705.529 94.4475 705.529 103.357C705.529 116.362 707.397 125.655 711.132 131.235C714.867 136.815 720.424 139.605 727.804 139.605C733.294 139.605 738.424 138.3 743.194 135.69V110.04H727.399L725.712 98.0925H758.382V143.25C753.972 145.77 749.269 147.84 744.274 149.46C739.324 151.035 733.587 151.823 727.062 151.823ZM838.857 83.7825C838.857 90.6675 836.809 96.225 832.714 100.455C828.619 104.685 823.602 107.677 817.662 109.432L844.054 150H825.829L802.407 111.66H792.214V150H776.554V56.85H802.542C814.467 56.85 823.489 59.1 829.609 63.6C835.774 68.055 838.857 74.7825 838.857 83.7825ZM822.454 83.7825C822.454 78.3825 820.879 74.49 817.729 72.105C814.579 69.675 809.809 68.46 803.419 68.46H792.214V100.185H803.757C809.697 100.185 814.287 98.925 817.527 96.405C820.812 93.84 822.454 89.6325 822.454 83.7825ZM902.861 127.59H869.584L863.104 150H847.174L876.806 56.85H896.246L925.946 150H909.341L902.861 127.59ZM872.824 115.507H899.554L886.256 69L872.824 115.507ZM999.266 56.85L1004.53 150H990.221L987.994 104.64C987.679 97.845 987.544 91.5 987.589 85.605C987.634 79.665 987.746 74.67 987.926 70.62L974.224 133.597H960.589L945.874 70.62C946.144 74.49 946.324 79.53 946.414 85.74C946.549 91.95 946.504 98.295 946.279 104.775L944.456 150H930.416L935.681 56.85H954.446L967.744 119.287L980.434 56.85H999.266ZM1080.21 56.85L1085.48 150H1071.17L1068.94 104.64C1068.63 97.845 1068.49 91.5 1068.54 85.605C1068.58 79.665 1068.69 74.67 1068.87 70.62L1055.17 133.597H1041.54L1026.82 70.62C1027.09 74.49 1027.27 79.53 1027.36 85.74C1027.5 91.95 1027.45 98.295 1027.23 104.775L1025.4 150H1011.36L1016.63 56.85H1035.39L1048.69 119.287L1061.38 56.85H1080.21ZM1157.38 56.85V68.7975H1137.27V137.985H1157.38V150H1101.36V137.985H1121.47V68.7975H1101.36V56.85H1157.38ZM1220.78 150L1191.15 70.755C1191.33 72.6 1191.6 75.48 1191.96 79.395C1192.32 83.265 1192.63 87.6975 1192.9 92.6925C1193.22 97.6425 1193.37 102.637 1193.37 107.677V150H1179.47V56.85H1199.79L1229.49 136.162C1229.17 133.372 1228.72 128.625 1228.14 121.92C1227.55 115.215 1227.26 107.677 1227.26 99.3075V56.85H1241.16V150H1220.78ZM1293.69 151.823C1281.81 151.823 1272.52 147.75 1265.82 139.605C1259.11 131.46 1255.76 119.355 1255.76 103.29C1255.76 92.67 1257.63 83.7825 1261.36 76.6275C1265.14 69.4275 1270.11 64.0275 1276.28 60.4275C1282.44 56.7825 1289.15 54.96 1296.39 54.96C1302.74 54.96 1308.03 55.905 1312.26 57.795C1316.53 59.685 1320.49 62.3175 1324.14 65.6925L1315.36 74.805C1312.53 72.24 1309.62 70.3275 1306.65 69.0675C1303.73 67.8075 1300.44 67.1775 1296.8 67.1775C1292.43 67.1775 1288.38 68.3475 1284.65 70.6875C1280.91 72.9825 1277.9 76.785 1275.6 82.095C1273.31 87.36 1272.16 94.4475 1272.16 103.357C1272.16 116.362 1274.03 125.655 1277.76 131.235C1281.5 136.815 1287.06 139.605 1294.44 139.605C1299.93 139.605 1305.06 138.3 1309.83 135.69V110.04H1294.03L1292.34 98.0925H1325.01V143.25C1320.6 145.77 1315.9 147.84 1310.91 149.46C1305.96 151.035 1300.22 151.823 1293.69 151.823ZM799.058 300.135C799.058 305.31 798.045 309.63 796.02 313.095C793.995 316.56 791.25 319.327 787.785 321.397C784.32 323.422 780.428 324.862 776.108 325.717C771.833 326.572 767.4 327 762.81 327H735.54V233.85H760.988C765.353 233.85 769.56 234.232 773.61 234.997C777.66 235.762 781.283 237.045 784.478 238.845C787.718 240.6 790.283 243.007 792.173 246.067C794.063 249.082 795.008 252.862 795.008 257.407C795.008 261.322 794.198 264.652 792.578 267.397C790.958 270.142 788.82 272.37 786.165 274.08C783.555 275.745 780.765 276.937 777.795 277.657C781.17 278.242 784.478 279.322 787.718 280.897C791.003 282.427 793.703 284.745 795.818 287.85C797.978 290.91 799.058 295.005 799.058 300.135ZM779.145 258.69C779.145 254.01 777.683 250.657 774.758 248.632C771.833 246.607 767.715 245.595 762.405 245.595H751.2V272.527H763.35C768.57 272.527 772.508 271.447 775.163 269.287C777.818 267.082 779.145 263.55 779.145 258.69ZM782.723 300.067C782.723 295.927 781.913 292.71 780.293 290.415C778.673 288.075 776.49 286.455 773.745 285.555C771 284.61 767.918 284.137 764.498 284.137H751.2V314.85H763.823C766.793 314.85 769.718 314.49 772.598 313.77C775.523 313.005 777.93 311.565 779.82 309.45C781.755 307.335 782.723 304.207 782.723 300.067ZM874.065 233.85V245.797H853.95V314.985H874.065V327H818.04V314.985H838.155V245.797H818.04V233.85H874.065ZM934.628 246.472V327H918.968V246.472H891.023V233.85H963.248L961.628 246.472H934.628ZM1041.49 300.675C1041.49 306.21 1040.08 311.092 1037.24 315.322C1034.45 319.552 1030.4 322.86 1025.09 325.245C1019.83 327.63 1013.46 328.823 1005.99 328.823C998.385 328.823 991.747 327.697 986.077 325.447C980.407 323.197 975.615 320.16 971.7 316.335L980.272 306.75C983.557 309.81 987.292 312.195 991.477 313.905C995.662 315.615 1000.48 316.47 1005.92 316.47C1011.19 316.47 1015.71 315.232 1019.49 312.757C1023.31 310.237 1025.23 306.457 1025.23 301.417C1025.23 298.717 1024.66 296.422 1023.54 294.532C1022.41 292.597 1020.46 290.887 1017.67 289.402C1014.92 287.872 1011.07 286.365 1006.12 284.88C996.27 281.955 988.8 278.422 983.715 274.282C978.63 270.142 976.087 264.427 976.087 257.137C976.087 252.097 977.46 247.687 980.205 243.907C982.995 240.127 986.797 237.202 991.612 235.132C996.472 233.017 1001.96 231.96 1008.08 231.96C1014.83 231.96 1020.73 232.95 1025.77 234.93C1030.81 236.865 1035.31 239.61 1039.27 243.165L1031.03 252.48C1027.75 249.645 1024.21 247.575 1020.43 246.27C1016.7 244.92 1012.9 244.245 1009.03 244.245C1004.26 244.245 1000.25 245.257 997.012 247.282C993.772 249.262 992.152 252.255 992.152 256.26C992.152 258.69 992.805 260.76 994.11 262.47C995.46 264.135 997.71 265.71 1000.86 267.195C1004.05 268.635 1008.42 270.187 1013.95 271.852C1019.17 273.382 1023.85 275.272 1027.99 277.522C1032.18 279.772 1035.46 282.742 1037.85 286.432C1040.28 290.077 1041.49 294.825 1041.49 300.675Z" fill="#2374AB"/>
<path d="M409.355 145.553C402.188 118.861 388.599 98.7346 359.652 98.7346H322.328V139.679C322.328 171.467 293.288 198.245 260.152 198.245H160.745C133.567 198.245 111.042 219.841 111.042 245.15V333.086C111.042 358.137 134.498 372.821 160.745 379.991C192.205 388.543 222.456 390.098 260.152 379.991C285.19 373.253 309.855 359.692 309.855 333.086V297.929H210.542V286.181H359.652C388.599 286.181 399.303 267.437 409.355 239.363C419.78 210.425 419.314 182.611 409.355 145.553ZM266.388 321.338C276.72 321.338 285.097 329.199 285.097 338.874C285.097 348.635 276.72 356.495 266.388 356.495C256.15 356.495 247.68 348.548 247.68 338.874C247.773 329.113 256.15 321.338 266.388 321.338ZM156.185 186.67H255.591C283.235 186.67 305.295 165.507 305.295 139.766V51.7433C305.295 26.6928 282.584 7.94817 255.591 3.7155C222.27 -1.38098 186.062 -1.12183 156.185 3.80188C114.114 10.7124 106.481 25.138 106.481 51.8297V86.9868H205.981V98.7346H69.1572C40.2101 98.7346 14.8931 114.888 6.9815 145.553C-2.14008 180.71 -2.51239 202.651 6.9815 239.363C14.0554 266.659 30.9024 286.181 59.8495 286.181H94.0089V244.027C94.0089 213.535 122.397 186.67 156.185 186.67ZM149.948 63.4911C139.617 63.4911 131.24 55.6305 131.24 45.9558C131.333 36.1947 139.617 28.3341 149.948 28.3341C160.187 28.3341 168.657 36.2811 168.657 45.9558C168.657 55.6305 160.28 63.4911 149.948 63.4911Z" fill="#2374AB"/>
</svg>
